<svg xmlns="http://www.w3.org/2000/svg" xmlns:xlink="http://www.w3.org/1999/xlink" width="500" zoomAndPan="magnify" viewBox="0 0 375 374.999991" height="500" preserveAspectRatio="xMidYMid meet" version="1.0"><defs><g/><clipPath id="c714552a00"><path d="M 46 115 L 101 115 L 101 172 L 46 172 Z M 46 115 " clip-rule="nonzero"/></clipPath><clipPath id="e3c3117dae"><path d="M 38.285156 120.730469 L 98.542969 108.425781 L 110.246094 165.746094 L 49.992188 178.050781 Z M 38.285156 120.730469 " clip-rule="nonzero"/></clipPath><clipPath id="c0b55915b1"><path d="M 38.285156 120.730469 L 98.542969 108.425781 L 110.246094 165.746094 L 49.992188 178.050781 Z M 38.285156 120.730469 " clip-rule="nonzero"/></clipPath><clipPath id="dea959c5ba"><path d="M 7 135 L 48 135 L 48 164 L 7 164 Z M 7 135 " clip-rule="nonzero"/></clipPath><clipPath id="9fee44ca3d"><path d="M 6.558594 134.511719 L 45.34375 130.433594 L 49.1875 166.980469 L 10.402344 171.058594 Z M 6.558594 134.511719 " clip-rule="nonzero"/></clipPath><clipPath id="94de5cec55"><path d="M 45.191406 130.449219 L 6.40625 134.527344 L 10.25 171.074219 L 49.039062 166.996094 Z M 45.191406 130.449219 " clip-rule="nonzero"/></clipPath></defs><g fill="#000000" fill-opacity="1"><g transform="translate(49.840588, 211.633663)"><g><path d="M 30.40625 -46.71875 L 30.40625 -37.375 L 14.046875 -37.375 L 14.046875 -28.09375 L 29.15625 -28.09375 L 29.15625 -18.75 L 14.046875 -18.75 L 14.046875 0 L 3.390625 0 L 3.390625 -46.71875 Z M 30.40625 -46.71875 "/></g></g></g><g fill="#000000" fill-opacity="1"><g transform="translate(77.130667, 211.633663)"><g><path d="M 3.390625 0 L 3.390625 -48.703125 L 13.421875 -48.703125 L 13.421875 0 Z M 3.390625 0 "/></g></g></g><g fill="#000000" fill-opacity="1"><g transform="translate(89.133772, 211.633663)"><g><path d="M 4.359375 -45.234375 C 5.523438 -46.410156 6.921875 -47 8.546875 -47 C 10.171875 -47 11.566406 -46.410156 12.734375 -45.234375 C 13.910156 -44.066406 14.5 -42.671875 14.5 -41.046875 C 14.5 -39.429688 13.910156 -38.035156 12.734375 -36.859375 C 11.566406 -35.691406 10.171875 -35.109375 8.546875 -35.109375 C 6.921875 -35.109375 5.523438 -35.691406 4.359375 -36.859375 C 3.191406 -38.035156 2.609375 -39.429688 2.609375 -41.046875 C 2.609375 -42.671875 3.191406 -44.066406 4.359375 -45.234375 Z M 3.390625 -29.046875 L 3.390625 0 L 13.421875 0 L 13.421875 -29.046875 Z M 3.390625 -29.046875 "/></g></g></g><g fill="#000000" fill-opacity="1"><g transform="translate(101.419968, 211.633663)"><g><path d="M 2.09375 7.140625 L 10.3125 3.109375 C 11.820312 5.609375 14.441406 6.859375 18.171875 6.859375 C 19.910156 6.859375 21.523438 6.300781 23.015625 5.1875 C 24.503906 4.070312 25.25 2.363281 25.25 0.0625 L 25.25 -2.09375 C 23.476562 -0.132812 20.304688 0.84375 15.734375 0.84375 C 11.546875 0.84375 8.09375 -0.632812 5.375 -3.59375 C 2.65625 -6.5625 1.296875 -10.195312 1.296875 -14.5 C 1.296875 -18.800781 2.65625 -22.441406 5.375 -25.421875 C 8.09375 -28.398438 11.546875 -29.890625 15.734375 -29.890625 C 19.472656 -29.890625 22.585938 -28.738281 25.078125 -26.4375 L 25.25 -26.4375 L 25.25 -29.046875 L 35.28125 -29.046875 L 35.28125 0.796875 C 35.28125 5.515625 33.710938 9.15625 30.578125 11.71875 C 27.441406 14.289062 23.304688 15.578125 18.171875 15.578125 C 9.867188 15.578125 4.507812 12.765625 2.09375 7.140625 Z M 13.90625 -19.421875 C 12.601562 -18.140625 11.953125 -16.5 11.953125 -14.5 C 11.953125 -12.5 12.570312 -10.863281 13.8125 -9.59375 C 15.0625 -8.332031 16.707031 -7.703125 18.75 -7.703125 C 20.707031 -7.703125 22.316406 -8.34375 23.578125 -9.625 C 24.847656 -10.90625 25.484375 -12.53125 25.484375 -14.5 C 25.484375 -16.5 24.832031 -18.140625 23.53125 -19.421875 C 22.226562 -20.703125 20.632812 -21.34375 18.75 -21.34375 C 16.820312 -21.34375 15.207031 -20.703125 13.90625 -19.421875 Z M 13.90625 -19.421875 "/></g></g></g><g fill="#000000" fill-opacity="1"><g transform="translate(135.277788, 211.633663)"><g><path d="M 3.390625 0 L 3.390625 -48.703125 L 13.421875 -48.703125 L 13.421875 -25.984375 L 13.53125 -25.984375 C 16.132812 -28.585938 18.910156 -29.890625 21.859375 -29.890625 C 23.296875 -29.890625 24.71875 -29.703125 26.125 -29.328125 C 27.539062 -28.953125 28.898438 -28.367188 30.203125 -27.578125 C 31.503906 -26.785156 32.5625 -25.660156 33.375 -24.203125 C 34.1875 -22.753906 34.59375 -21.066406 34.59375 -19.140625 L 34.59375 0 L 24.578125 0 L 24.578125 -16.421875 C 24.578125 -17.929688 24.09375 -19.25 23.125 -20.375 C 22.164062 -21.507812 20.910156 -22.078125 19.359375 -22.078125 C 17.847656 -22.078125 16.476562 -21.492188 15.25 -20.328125 C 14.03125 -19.160156 13.421875 -17.859375 13.421875 -16.421875 L 13.421875 0 Z M 3.390625 0 "/></g></g></g><g fill="#000000" fill-opacity="1"><g transform="translate(167.889994, 211.633663)"><g><path d="M 28.25 -9.625 C 29.875 -9.625 31.453125 -9.867188 32.984375 -10.359375 C 34.515625 -10.847656 35.640625 -11.320312 36.359375 -11.78125 L 37.421875 -12.515625 L 41.953125 -3.453125 C 41.804688 -3.335938 41.597656 -3.1875 41.328125 -3 C 41.066406 -2.8125 40.453125 -2.460938 39.484375 -1.953125 C 38.523438 -1.441406 37.5 -1 36.40625 -0.625 C 35.3125 -0.25 33.875 0.0859375 32.09375 0.390625 C 30.320312 0.691406 28.492188 0.84375 26.609375 0.84375 C 22.273438 0.84375 18.160156 -0.21875 14.265625 -2.34375 C 10.378906 -4.476562 7.242188 -7.414062 4.859375 -11.15625 C 2.484375 -14.894531 1.296875 -18.929688 1.296875 -23.265625 C 1.296875 -26.554688 1.992188 -29.710938 3.390625 -32.734375 C 4.796875 -35.753906 6.65625 -38.335938 8.96875 -40.484375 C 11.289062 -42.640625 14 -44.359375 17.09375 -45.640625 C 20.195312 -46.921875 23.367188 -47.5625 26.609375 -47.5625 C 29.628906 -47.5625 32.410156 -47.203125 34.953125 -46.484375 C 37.503906 -45.765625 39.3125 -45.050781 40.375 -44.34375 L 41.953125 -43.265625 L 37.421875 -34.203125 C 37.160156 -34.429688 36.765625 -34.703125 36.234375 -35.015625 C 35.710938 -35.335938 34.65625 -35.765625 33.0625 -36.296875 C 31.476562 -36.828125 29.875 -37.09375 28.25 -37.09375 C 25.6875 -37.09375 23.382812 -36.675781 21.34375 -35.84375 C 19.3125 -35.007812 17.695312 -33.910156 16.5 -32.546875 C 15.3125 -31.191406 14.40625 -29.734375 13.78125 -28.171875 C 13.164062 -26.609375 12.859375 -25.015625 12.859375 -23.390625 C 12.859375 -19.835938 14.1875 -16.65625 16.84375 -13.84375 C 19.507812 -11.03125 23.3125 -9.625 28.25 -9.625 Z M 28.25 -9.625 "/></g></g></g><g fill="#000000" fill-opacity="1"><g transform="translate(205.71109, 211.633663)"><g><path d="M 5.375 -3.59375 C 2.65625 -6.5625 1.296875 -10.195312 1.296875 -14.5 C 1.296875 -18.800781 2.65625 -22.441406 5.375 -25.421875 C 8.09375 -28.398438 11.546875 -29.890625 15.734375 -29.890625 C 19.585938 -29.890625 22.757812 -28.6875 25.25 -26.28125 L 25.25 -29.046875 L 35.28125 -29.046875 L 35.28125 0 L 25.375 0 L 25.375 -3.28125 L 25.25 -3.28125 C 22.757812 -0.53125 19.585938 0.84375 15.734375 0.84375 C 11.546875 0.84375 8.09375 -0.632812 5.375 -3.59375 Z M 13.90625 -19.421875 C 12.601562 -18.140625 11.953125 -16.5 11.953125 -14.5 C 11.953125 -12.5 12.570312 -10.863281 13.8125 -9.59375 C 15.0625 -8.332031 16.707031 -7.703125 18.75 -7.703125 C 20.707031 -7.703125 22.316406 -8.34375 23.578125 -9.625 C 24.847656 -10.90625 25.484375 -12.53125 25.484375 -14.5 C 25.484375 -16.5 24.832031 -18.140625 23.53125 -19.421875 C 22.226562 -20.703125 20.632812 -21.34375 18.75 -21.34375 C 16.820312 -21.34375 15.207031 -20.703125 13.90625 -19.421875 Z M 13.90625 -19.421875 "/></g></g></g><g fill="#000000" fill-opacity="1"><g transform="translate(239.56891, 211.633663)"><g><path d="M 33.296875 -25.453125 C 36.015625 -22.492188 37.375 -18.859375 37.375 -14.546875 C 37.375 -10.242188 36.015625 -6.601562 33.296875 -3.625 C 30.578125 -0.644531 27.125 0.84375 22.9375 0.84375 C 19.082031 0.84375 15.910156 -0.363281 13.421875 -2.78125 L 13.421875 14.71875 L 3.390625 14.71875 L 3.390625 -29.046875 L 13.3125 -29.046875 L 13.3125 -25.765625 L 13.421875 -25.765625 C 15.910156 -28.515625 19.082031 -29.890625 22.9375 -29.890625 C 27.125 -29.890625 30.578125 -28.410156 33.296875 -25.453125 Z M 24.765625 -9.625 C 26.078125 -10.90625 26.734375 -12.546875 26.734375 -14.546875 C 26.734375 -16.546875 26.109375 -18.175781 24.859375 -19.4375 C 23.609375 -20.707031 21.96875 -21.34375 19.9375 -21.34375 C 17.96875 -21.34375 16.347656 -20.703125 15.078125 -19.421875 C 13.816406 -18.140625 13.1875 -16.515625 13.1875 -14.546875 C 13.1875 -12.546875 13.835938 -10.90625 15.140625 -9.625 C 16.441406 -8.34375 18.039062 -7.703125 19.9375 -7.703125 C 21.851562 -7.703125 23.460938 -8.34375 24.765625 -9.625 Z M 24.765625 -9.625 "/></g></g></g><g fill="#000000" fill-opacity="1"><g transform="translate(273.426741, 211.633663)"><g><path d="M 4.359375 -45.234375 C 5.523438 -46.410156 6.921875 -47 8.546875 -47 C 10.171875 -47 11.566406 -46.410156 12.734375 -45.234375 C 13.910156 -44.066406 14.5 -42.671875 14.5 -41.046875 C 14.5 -39.429688 13.910156 -38.035156 12.734375 -36.859375 C 11.566406 -35.691406 10.171875 -35.109375 8.546875 -35.109375 C 6.921875 -35.109375 5.523438 -35.691406 4.359375 -36.859375 C 3.191406 -38.035156 2.609375 -39.429688 2.609375 -41.046875 C 2.609375 -42.671875 3.191406 -44.066406 4.359375 -45.234375 Z M 3.390625 -29.046875 L 3.390625 0 L 13.421875 0 L 13.421875 -29.046875 Z M 3.390625 -29.046875 "/></g></g></g><g fill="#000000" fill-opacity="1"><g transform="translate(285.712942, 211.633663)"><g><path d="M 5.09375 -29.046875 L 5.09375 -39.859375 L 15.125 -39.859375 L 15.125 -29.046875 L 21.234375 -29.046875 L 21.234375 -21.40625 L 15.125 -21.40625 L 15.125 -12.171875 C 15.125 -9.492188 15.878906 -8.15625 17.390625 -8.15625 C 17.765625 -8.15625 18.160156 -8.226562 18.578125 -8.375 C 18.992188 -8.53125 19.3125 -8.679688 19.53125 -8.828125 L 19.875 -9.0625 L 22.359375 -0.96875 C 20.210938 0.238281 17.757812 0.84375 15 0.84375 C 13.113281 0.84375 11.488281 0.515625 10.125 -0.140625 C 8.769531 -0.796875 7.742188 -1.679688 7.046875 -2.796875 C 6.347656 -3.910156 5.847656 -5.082031 5.546875 -6.3125 C 5.242188 -7.539062 5.09375 -8.851562 5.09375 -10.25 L 5.09375 -21.40625 L 0.90625 -21.40625 L 0.90625 -29.046875 Z M 5.09375 -29.046875 "/></g></g></g><g fill="#000000" fill-opacity="1"><g transform="translate(303.264664, 211.633663)"><g><path d="M 5.375 -3.59375 C 2.65625 -6.5625 1.296875 -10.195312 1.296875 -14.5 C 1.296875 -18.800781 2.65625 -22.441406 5.375 -25.421875 C 8.09375 -28.398438 11.546875 -29.890625 15.734375 -29.890625 C 19.585938 -29.890625 22.757812 -28.6875 25.25 -26.28125 L 25.25 -29.046875 L 35.28125 -29.046875 L 35.28125 0 L 25.375 0 L 25.375 -3.28125 L 25.25 -3.28125 C 22.757812 -0.53125 19.585938 0.84375 15.734375 0.84375 C 11.546875 0.84375 8.09375 -0.632812 5.375 -3.59375 Z M 13.90625 -19.421875 C 12.601562 -18.140625 11.953125 -16.5 11.953125 -14.5 C 11.953125 -12.5 12.570312 -10.863281 13.8125 -9.59375 C 15.0625 -8.332031 16.707031 -7.703125 18.75 -7.703125 C 20.707031 -7.703125 22.316406 -8.34375 23.578125 -9.625 C 24.847656 -10.90625 25.484375 -12.53125 25.484375 -14.5 C 25.484375 -16.5 24.832031 -18.140625 23.53125 -19.421875 C 22.226562 -20.703125 20.632812 -21.34375 18.75 -21.34375 C 16.820312 -21.34375 15.207031 -20.703125 13.90625 -19.421875 Z M 13.90625 -19.421875 "/></g></g></g><g fill="#000000" fill-opacity="1"><g transform="translate(337.122495, 211.633663)"><g><path d="M 3.390625 0 L 3.390625 -48.703125 L 13.421875 -48.703125 L 13.421875 0 Z M 3.390625 0 "/></g></g></g><g clip-path="url(#c714552a00)"><g clip-path="url(#e3c3117dae)"><g clip-path="url(#c0b55915b1)"><path fill="#000000" d="M 87.332031 121.355469 C 58.800781 127.050781 46.214844 143.484375 50.53125 171.300781 C 50.585938 171.652344 50.082031 171.773438 49.964844 171.441406 C 46.855469 162.699219 45.425781 154.445312 46.253906 146.847656 C 48.988281 121.769531 77.121094 112.808594 99.050781 116.089844 C 100.144531 116.253906 100.617188 117.523438 99.910156 118.375 C 86.589844 134.351562 95.851562 168.652344 54.03125 161.507812 C 56.242188 141.464844 66.269531 127.277344 87.332031 121.355469 " fill-opacity="1" fill-rule="evenodd"/></g></g></g><g clip-path="url(#dea959c5ba)"><g clip-path="url(#9fee44ca3d)"><g clip-path="url(#94de5cec55)"><path fill="#000000" d="M 15.871094 140.128906 C 34.078125 138.132812 44.75 145.605469 47.441406 163.125 C 47.472656 163.34375 47.800781 163.320312 47.808594 163.097656 C 48.015625 157.261719 47.304688 152.035156 45.367188 147.632812 C 38.964844 133.101562 20.378906 133.0625 7.839844 139.191406 C 7.214844 139.5 7.171875 140.351562 7.757812 140.726562 C 18.785156 147.789062 19.734375 170.132812 43.480469 157.910156 C 38.351562 146.296875 29.640625 139.6875 15.871094 140.128906 " fill-opacity="1" fill-rule="evenodd"/></g></g></g></svg>